inDegrees=no
num_controls=7
num_derivatives=13
num_iterations=133
num_multipliers=7
num_parameters=0
num_slacks=7
num_states=26
objective=0.449746
objective_accelerations=0.046757
objective_balance=0.007456
objective_effort=0.035598
objective_height=0.354991
objective_ligament=0.004943
solver_duration=1902.617094
status=Solve_Succeeded
success=true
DataType=double
version=3
OpenSimVersion=4.5
endheader
time	/jointset/ground_pelvis/pelvis_tilt/value	/jointset/ground_pelvis/pelvis_tx/value	/jointset/ground_pelvis/pelvis_ty/value	/jointset/hip_l/hip_flexion_l/value	/jointset/hip_l/hip_adduction_l/value	/jointset/hip_l/hip_rotation_l/value	/jointset/back/lumbar_extension/value	/jointset/patellofemoral_l/patellar_flexion_l/value	/jointset/knee_l/knee_flexion_l/value	/jointset/knee_l/knee_adduction_l/value	/jointset/knee_l/knee_rotation_l/value	/jointset/ankle_l/ankle_angle_l/value	/jointset/subtalar_l/subtalar_angle_l/value	/jointset/ground_pelvis/pelvis_tilt/speed	/jointset/ground_pelvis/pelvis_tx/speed	/jointset/ground_pelvis/pelvis_ty/speed	/jointset/hip_l/hip_flexion_l/speed	/jointset/hip_l/hip_adduction_l/speed	/jointset/hip_l/hip_rotation_l/speed	/jointset/back/lumbar_extension/speed	/jointset/patellofemoral_l/patellar_flexion_l/speed	/jointset/knee_l/knee_flexion_l/speed	/jointset/knee_l/knee_adduction_l/speed	/jointset/knee_l/knee_rotation_l/speed	/jointset/ankle_l/ankle_angle_l/speed	/jointset/subtalar_l/subtalar_angle_l/speed	/forceset/tau_hip_flexion_l	/forceset/tau_hip_adduction_l	/forceset/tau_hip_rotation_l	/forceset/tau_knee_flexion_l	/forceset/tau_ankle_angle_l	/forceset/tau_subtalar_angle_l	/forceset/tau_lumbar_extension	lambda_cid13_p0	lambda_cid13_p1	lambda_cid13_p2	lambda_cid13_p3	lambda_cid13_p4	lambda_cid13_p5	lambda_cid14_p0	/jointset/ground_pelvis/pelvis_tilt/accel	/jointset/ground_pelvis/pelvis_tx/accel	/jointset/ground_pelvis/pelvis_ty/accel	/jointset/hip_l/hip_flexion_l/accel	/jointset/hip_l/hip_adduction_l/accel	/jointset/hip_l/hip_rotation_l/accel	/jointset/back/lumbar_extension/accel	/jointset/patellofemoral_l/patellar_flexion_l/accel	/jointset/knee_l/knee_flexion_l/accel	/jointset/knee_l/knee_adduction_l/accel	/jointset/knee_l/knee_rotation_l/accel	/jointset/ankle_l/ankle_angle_l/accel	/jointset/subtalar_l/subtalar_angle_l/accel	gamma_cid13_p0	gamma_cid13_p1	gamma_cid13_p2	gamma_cid13_p3	gamma_cid13_p4	gamma_cid13_p5	gamma_cid14_p0
1.5	-0.4454494662946116	-0.07278844164978839	0.7689636460362135	1.241398694043782	-0.3096241966812724	-0.05711665681443334	-0.3423708740365929	0.6584830522744678	0.6584830522744491	-0.1736921553112827	0.1744581176669241	0.02643726700990058	-0.05071064401689286	0.7282249331680473	0.2640712087264048	0.4626634435940253	-2.267646749791537	0.04004148245292698	-0.5799804070748455	0.567224670528118	-1.666229041706874	-1.666229041707039	0.00438508936822107	-0.0002567816124020941	-0.2136193453175596	0.01728582609729406	-0.2490142245451806	0.01725381201819871	-0.02033615497805569	-0.1942321880827274	0.1380393345403013	0.04560991765744501	0.2242826547323665	5.33770876568736	-23.56500604264754	6.577918440972997	-4.570189585853159	-611.4118726667687	-61.65876694310501	-30.03397241590048	0.6050627802950321	0.6452687689115785	-0.269927617132898	-1.491036690817647	0.5342484268848905	-0.268763779791775	1.695930526374573	-1.033721439078717	-1.033721439078755	0.009335434616022004	-0.03309576076437006	-0.08597369890917593	0.5163526963464147	5.806739888029056e-08	9.432187196200125e-07	-3.422650667427872e-07	1.081578007452826e-07	1.807281330228125e-07	5.163138110835952e-08	1.658303342074668e-07
1.51	-0.4381373428569336	-0.07011564878421633	0.7735759233375077	1.218649787457918	-0.3091979039272271	-0.06293011006052744	-0.3366150682433527	0.6417713267796799	0.6417713267796661	-0.1736491319373847	0.1744554572416877	0.02429701484412589	-0.05051284329900189	0.7341016048484771	0.270461036016949	0.459703068803036	-2.281831940947495	0.04522583212541814	-0.5826324432745229	0.5838736816114706	-1.675883853804244	-1.675883853804265	0.004217384196760468	-0.0002774914424718538	-0.2143804105066826	0.02228580305021214	-0.2412368024285212	0.01648430343306121	-0.02023950713765811	-0.193011409040502	0.1381433183174436	0.04489545357674637	0.2182844474014606	5.588781990856812	-23.40251405220158	6.670621467976103	-4.590910927502474	-607.3081497147655	-61.93984347720543	-30.95082799476154	0.5642597590672688	0.6319164599327319	-0.3223965401844489	-1.336850637810969	0.5117430463212923	-0.2515792932402898	1.639965423056717	-0.8965642104456804	-0.8965642104239701	-0.02998100780578265	0.01322391302350412	-0.0635601654155292	0.493410305204902	4.793622587763432e-08	1.020095217252971e-06	-3.081394317093697e-07	1.225950557571449e-07	1.870098191221733e-07	7.26014250539921e-08	1.67369062041225e-07
1.52	-0.4307693946230212	-0.06737974229557743	0.7781559360648714	1.195768110898529	-0.3087195247146792	-0.06876771481925445	-0.3306946565345306	0.6249700125408427	0.6249700125408344	-0.1736078171181575	0.174452546219581	0.02215067457915964	-0.05026472478949364	0.7393898924149185	0.2766939333397734	0.4562105288079432	-2.294200744496497	0.05045877415351167	-0.5848107096015835	0.6001458536444668	-1.684146790516795	-1.684146790516671	0.004043378434152922	-0.0003069009864701785	-0.2148369651558719	0.02734938442074631	-0.2334593803118617	0.01571479484792551	-0.0201428592972649	-0.1917906299982757	0.1382473020945866	0.04418098949604971	0.2122862400705541	5.831810487521131	-23.24076207877573	6.765896734113824	-4.595597941769564	-603.3315341822976	-62.27242502679285	-31.84680741182967	0.4873859574973478	0.6138827753676166	-0.3763606579536247	-1.127759169426336	0.5439668980053645	-0.1740098052684431	1.620562716303281	-0.7553463621149141	-0.7553463621149389	0.008075316386633407	-0.03483570355008486	-0.0250715909224242	0.5290735798696311	3.936141785683525e-08	1.088242930456431e-06	-2.862562388638453e-07	1.341668745133424e-07	1.941835805001462e-07	9.290759419264548e-08	1.693662576781776e-07
1.53	-0.4233515134993961	-0.06458236956755317	0.7826983956563356	1.172771881357917	-0.3081886635325816	-0.07462485964402876	-0.3246136348493462	0.6080930958137459	0.6080930958137436	-0.1735683255859227	0.1744494282254648	0.02000126570874361	-0.04996574446868697	0.7440823987382155	0.2827455865560556	0.4521950560745861	-2.304726753067508	0.05571585175744136	-0.5865353270866145	0.6159768839619399	-1.69099522391046	-1.690995223910414	0.003849611552357498	-0.000320715532337791	-0.2149955276221208	0.03245155166802596	-0.2255450869810697	0.01475357473932997	-0.02007813505985166	-0.1905707177151046	0.1383459983367621	0.04337714902155735	0.2061249448541264	6.072870608581558	-23.04100238816758	6.856429587692677	-4.553896958341342	-599.2992490252107	-62.55930306334434	-32.71802447084635	0.4446038353112806	0.5955821902422855	-0.4270492619577612	-0.9672461804417913	0.516816668955795	-0.1590663860943637	1.552133274911139	-0.6134268152872053	-0.6134268152988854	-0.03370787925446355	0.01485629673277181	-0.003845264383887533	0.5013658060290371	3.24402476292594e-08	1.14711631020355e-06	-2.77380640842957e-07	1.426941672478962e-07	2.023051718616444e-07	1.125083963488835e-07	1.718505753560243e-07
1.54	-0.4158898231394251	-0.06172552518826933	0.78719811878428	1.149679946835695	-0.3076051838789713	-0.08049672637684775	-0.3183767508438988	0.5911549277552537	0.5911549277552561	-0.1735308927602639	0.1744460742112583	0.01785175187568349	-0.0496156269736331	0.7481517396841278	0.288588263591693	0.4476632361039865	-2.313341740818654	0.06098246845613201	-0.5877550912106032	0.6313183176970846	-1.696397056795921	-1.696397056795953	0.003631637118888902	-0.0003541050046904705	-0.2148579576846804	0.03757681927018192	-0.2176307936502785	0.01379235463073513	-0.02001341082243629	-0.1893508054319337	0.1384446945789379	0.04257330854706574	0.1999636496376976	6.305452574932225	-22.84169681491068	6.949249231030309	-4.492280680502878	-595.3986973148722	-62.89823782629541	-33.56064488076529	0.3627528820204157	0.5720875392386541	-0.4796301054021516	-0.7455550054536388	0.5458747169575534	-0.07303913305995781	1.522643399837575	-0.4660262604740389	-0.4660262604740652	0.003233806051999383	-0.03875068884709975	0.03415488981541737	0.5336936508448896	2.516513398542806e-08	1.204531164147108e-06	-2.681343775984305e-07	1.505351854394181e-07	2.109015325300031e-07	1.321390997372544e-07	1.738870124515752e-07
